<?xml version="1.0" standalone="no"?>
<!DOCTYPE svg PUBLIC "-//W3C//DTD SVG 20010904//EN"
 "http://www.w3.org/TR/2001/REC-SVG-20010904/DTD/svg10.dtd">
<svg version="1.0" xmlns="http://www.w3.org/2000/svg"
 width="500.000000pt" height="500.000000pt" viewBox="0 0 500.000000 500.000000"
 preserveAspectRatio="xMidYMid meet">

<g transform="translate(0.000000,500.000000) scale(0.100000,-0.100000)"
fill="#000000" stroke="none">
<path d="M2412 4255 l3 -85 53 0 c28 0 52 5 52 10 0 6 -17 10 -39 10 -35 0
-39 3 -45 31 -3 17 -6 51 -6 75 0 24 -5 44 -11 44 -7 0 -9 -30 -7 -85z"/>
<path d="M2651 4255 c-6 -42 -11 -80 -11 -85 0 -6 20 -10 45 -10 55 0 76 27
51 64 -13 21 -13 25 1 38 12 12 13 20 4 37 -7 11 -17 21 -24 21 -7 0 -22 3
-33 6 -20 5 -22 0 -33 -71z m69 40 c15 -18 5 -35 -21 -35 -25 0 -25 -16 1 -23
26 -7 36 -33 20 -52 -14 -17 -29 -19 -47 -7 -10 6 -10 22 -2 70 11 63 25 76
49 47z"/>
<path d="M2245 4242 c-10 -42 -20 -83 -22 -89 -3 -7 2 -13 12 -13 9 0 13 5 10
10 -25 40 62 82 90 44 7 -10 11 -22 9 -26 -3 -5 -1 -8 5 -8 25 0 18 23 -24 84
-26 36 -50 68 -54 70 -4 3 -16 -30 -26 -72z m65 -16 c0 -3 -11 -6 -25 -6 -25
0 -31 13 -19 44 5 13 9 12 25 -8 10 -13 19 -27 19 -30z"/>
<path d="M2820 4284 c0 -11 -9 -46 -19 -79 -11 -33 -16 -63 -13 -66 16 -15 84
-31 94 -21 6 6 -6 12 -33 16 -40 6 -41 8 -35 38 8 41 10 42 47 29 19 -7 36 -8
42 -2 5 5 -6 11 -27 15 -40 8 -49 17 -40 41 7 17 33 17 77 0 9 -4 17 -3 17 4
0 5 -18 15 -41 21 -22 6 -47 14 -55 17 -9 3 -14 -1 -14 -13z"/>
<path d="M2047 4258 c-19 -7 -25 -14 -19 -21 14 -19 51 -135 44 -141 -3 -3 -1
-6 5 -6 21 0 21 14 -2 80 -13 38 -21 71 -17 74 10 11 50 6 55 -6 2 -7 -4 -22
-15 -34 -19 -21 -19 -21 11 -34 16 -6 37 -20 47 -31 19 -22 41 -15 23 8 -7 8
-25 21 -41 29 -27 14 -27 16 -13 38 14 22 14 25 0 40 -18 18 -37 19 -78 4z"/>
<path d="M1937 4214 c-3 -3 8 -27 24 -52 44 -70 36 -112 -23 -112 -24 0 -32 8
-55 55 -15 30 -33 55 -40 55 -17 0 -17 -2 9 -47 48 -84 95 -106 138 -63 27 27
25 49 -7 115 -26 54 -33 61 -46 49z"/>
<path d="M2981 4158 c-57 -48 -73 -68 -53 -68 5 0 17 9 26 19 17 19 20 19 53
3 29 -14 34 -21 31 -44 -3 -16 1 -29 9 -32 10 -4 13 14 13 84 0 50 -4 90 -9
90 -5 0 -36 -23 -70 -52z m59 -8 c0 -33 -2 -35 -31 -19 -20 10 -20 11 -3 30
24 27 34 24 34 -11z"/>
<path d="M3146 4093 c-42 -67 -43 -72 -15 -107 15 -19 30 -26 53 -26 28 0 39
8 74 55 27 36 37 57 30 61 -7 4 -13 3 -15 -3 -2 -5 -17 -29 -34 -51 -38 -51
-82 -59 -101 -17 -10 22 -7 31 19 68 42 59 45 65 34 71 -5 4 -25 -20 -45 -51z"/>
<path d="M1700 4064 c-30 -24 -57 -49 -59 -55 -4 -14 15 -4 45 23 21 19 21 18
64 -39 24 -32 44 -60 46 -62 1 -1 7 0 13 3 6 4 -8 29 -34 62 -25 30 -45 59
-45 63 0 5 15 18 33 30 25 16 28 21 12 20 -11 0 -45 -20 -75 -45z"/>
<path d="M3365 3990 l29 -30 -52 -53 c-29 -29 -49 -56 -45 -60 4 -4 31 16 60
45 l53 52 30 -29 c21 -20 30 -24 30 -13 0 18 -103 118 -121 118 -7 0 0 -14 16
-30z"/>
<path d="M1540 3916 c0 -2 12 -30 26 -62 14 -33 30 -69 35 -82 5 -13 13 -21
18 -17 6 3 4 17 -4 32 -13 26 -13 29 12 55 25 26 28 27 49 13 18 -11 24 -12
33 -2 8 10 -8 19 -72 40 -83 27 -97 30 -97 23z m89 -42 c3 -3 -4 -14 -16 -25
l-20 -21 -12 32 c-11 32 -10 32 17 25 15 -4 29 -9 31 -11z"/>
<path d="M2230 3861 c-90 -30 -141 -56 -207 -104 -117 -87 -202 -213 -243
-359 -19 -67 -20 -102 -20 -483 l0 -410 -27 35 c-15 19 -47 55 -70 80 -40 43
-43 44 -60 27 -15 -15 -18 -36 -18 -147 0 -72 -1 -130 -3 -130 -2 0 -18 11
-35 24 -50 37 -107 63 -170 76 -153 31 -140 -40 36 -201 63 -58 70 -68 58 -83
-11 -13 -11 -20 3 -42 43 -64 190 -184 252 -204 20 -7 58 -10 87 -6 l52 5 37
-49 c85 -112 228 -201 375 -234 325 -73 673 138 762 463 18 64 21 105 21 326
1 139 4 261 6 271 3 11 35 41 71 68 79 61 101 90 85 116 -10 16 5 32 116 127
135 116 162 153 127 179 -45 33 -190 6 -302 -57 -29 -16 -53 -26 -53 -22 0 5
7 61 14 125 21 178 6 239 -48 189 -26 -24 -46 -27 -46 -7 0 7 -18 49 -39 93
-76 151 -223 278 -383 328 -67 21 -98 25 -201 24 -90 0 -137 -5 -177 -18z
m293 -6 c91 -16 202 -65 282 -126 84 -63 170 -186 204 -292 13 -37 13 -37 -44
-100 -31 -34 -69 -79 -83 -99 -15 -21 -29 -38 -32 -38 -3 0 -2 39 3 88 11 108
4 230 -18 300 -26 86 -44 66 -74 -80 -11 -51 -25 -94 -31 -96 -7 -3 -21 -13
-31 -23 -16 -16 -19 -34 -19 -102 0 -60 -9 -118 -33 -214 -19 -73 -36 -135
-39 -138 -3 -3 -9 7 -13 22 -4 17 -2 29 4 31 7 2 11 64 11 182 0 164 -2 181
-19 197 -11 10 -27 48 -36 84 -32 125 -68 155 -212 173 -140 17 -172 -7 -131
-100 14 -33 29 -78 33 -101 6 -36 4 -43 -14 -53 -20 -10 -21 -19 -21 -195 0
-129 3 -185 11 -185 13 0 4 -45 -16 -76 -7 -11 -31 -26 -54 -33 -73 -21 -72
-13 -69 -501 3 -414 4 -430 23 -449 19 -19 34 -21 303 -21 155 -1 287 2 293 6
34 21 39 69 39 415 0 293 2 340 14 336 8 -3 41 -11 74 -17 64 -11 105 -2 172
39 19 11 37 21 40 21 11 0 -7 -556 -19 -595 -88 -272 -335 -455 -616 -455
-180 0 -366 90 -485 234 l-38 46 31 32 c72 78 87 107 87 173 0 34 -7 102 -16
151 -11 62 -13 114 -9 171 6 79 6 83 -18 107 -21 21 -27 41 -37 118 -6 51 -13
94 -15 96 -2 3 -11 2 -19 -1 -26 -10 -56 -131 -63 -254 l-6 -114 -18 28 c-18
26 -19 57 -19 453 0 474 1 486 67 620 45 93 168 219 258 267 147 77 264 96
418 68z m-118 -259 c43 -11 67 -23 87 -45 25 -27 33 -49 54 -134 l7 -29 -79 4
c-44 3 -107 2 -142 -2 -69 -6 -63 -12 -76 70 -4 20 -15 52 -26 73 -23 43 -25
63 -7 70 25 11 124 6 182 -7z m425 -56 c13 -62 8 -276 -8 -380 l-8 -45 -38
116 c-38 116 -38 117 -23 165 13 40 47 193 47 211 0 2 4 2 9 -1 4 -3 14 -33
21 -66z m285 -210 c-3 -36 -11 -101 -17 -145 -10 -75 -13 -81 -52 -114 -23
-19 -70 -65 -105 -101 -47 -48 -62 -58 -56 -40 5 14 8 64 7 112 -2 62 3 100
15 130 32 81 93 176 145 224 l51 48 9 -25 c5 -13 7 -53 3 -89z m-567 34 l42
-5 0 -174 c0 -105 -4 -176 -10 -180 -6 -4 -10 45 -10 139 0 86 -4 147 -10 151
-6 4 -10 -45 -10 -138 0 -138 -1 -145 -21 -150 -11 -3 -82 -5 -157 -4 l-137 2
-3 169 c-1 103 1 173 7 179 20 20 190 26 309 11z m217 -154 c62 -195 70 -277
33 -350 -27 -53 -54 -63 -68 -25 -5 14 -17 28 -25 31 -21 9 -19 82 5 174 24
92 25 170 4 213 -18 34 -22 96 -8 118 6 10 11 4 17 -21 5 -19 24 -82 42 -140z
m133 -16 c-28 -60 -30 -71 -24 -134 7 -73 -4 -140 -28 -159 -11 -10 -13 9 -12
117 l1 129 43 56 c23 31 45 57 47 57 2 0 -10 -30 -27 -66z m-208 -160 c-11
-43 -20 -95 -20 -116 0 -41 0 -41 -24 -32 -22 8 -21 17 22 193 l37 155 3 -61
c2 -38 -5 -90 -18 -139z m745 147 c-11 -10 -69 -49 -130 -86 -60 -38 -146 -90
-190 -118 -67 -41 -90 -50 -140 -54 l-60 -5 60 62 c77 79 211 169 295 197 38
13 90 23 125 23 58 0 59 0 40 -19z m-44 -82 c-41 -39 -107 -97 -145 -128 l-71
-57 -55 6 -55 6 34 19 c18 11 61 38 95 60 86 56 260 163 266 164 3 0 -29 -32
-69 -70z m-811 -144 c4 -16 12 -40 19 -52 11 -23 11 -23 -45 -23 -89 0 -54
-13 42 -16 135 -4 124 40 124 -471 0 -420 -1 -434 -20 -453 -19 -19 -33 -20
-284 -20 -251 0 -265 1 -290 21 l-26 20 0 429 c0 489 -4 465 83 474 47 4 78
16 43 16 -15 0 -15 3 -3 28 8 15 17 39 21 55 l7 27 161 -2 162 -3 6 -30z m534
-55 c48 -5 91 -12 94 -15 7 -6 -33 -50 -73 -78 -23 -17 -52 -24 -125 -29 -52
-4 -123 -10 -156 -14 -41 -4 -64 -2 -68 5 -6 9 15 59 41 100 1 2 26 12 55 22
60 21 105 23 232 9z m-354 -114 c0 -3 -4 -8 -10 -11 -5 -3 -10 -1 -10 4 0 6 5
11 10 11 6 0 10 -2 10 -4z m-850 -156 l13 -116 -42 -84 -41 -85 4 155 c4 152
26 275 45 254 5 -5 14 -61 21 -124z m877 119 c7 -7 30 -9 60 -5 26 3 89 8 138
12 l90 5 -25 -20 c-54 -44 -134 -76 -185 -75 -74 1 -125 20 -125 48 0 21 16
46 30 46 3 0 11 -5 17 -11z m-1056 -272 c38 -80 43 -98 39 -146 -1 -31 -3 -80
-4 -109 l-1 -53 -23 28 c-13 15 -49 57 -80 92 l-57 65 -4 108 c-2 59 0 124 4
144 l6 37 38 -37 c22 -22 57 -76 82 -129z m229 42 c0 -16 -9 -47 -20 -69 -23
-45 -26 -109 -9 -221 11 -69 10 -80 -7 -115 -23 -48 -61 -54 -81 -14 -30 60
-12 162 58 326 21 50 39 101 39 113 0 12 4 19 10 16 6 -3 10 -20 10 -36z
m-494 -99 c65 -32 200 -149 245 -211 l19 -26 -47 5 c-36 4 -62 17 -117 59 -39
30 -112 85 -162 123 -51 37 -95 74 -99 81 -15 23 92 3 161 -31z m327 1 c29
-44 35 -104 22 -210 -7 -58 -9 -62 -22 -45 -11 15 -13 41 -8 119 6 80 4 108
-8 138 -9 20 -15 37 -13 37 2 0 15 -18 29 -39z m-330 -119 l147 -112 -48 0
c-47 0 -48 1 -143 98 -97 99 -146 155 -119 136 8 -6 81 -61 163 -122z m521
-177 c-9 -44 -45 -104 -66 -111 -19 -6 -48 11 -48 27 0 5 7 9 15 9 24 0 53 36
65 79 8 29 7 64 -4 138 -8 54 -12 112 -8 128 8 40 54 -227 46 -270z m-298 41
c75 -6 122 -34 144 -85 18 -38 18 -42 3 -48 -9 -4 -41 -1 -72 6 -31 7 -87 17
-126 22 -66 8 -72 11 -115 55 -61 65 -56 67 166 50z m58 -141 c37 -9 78 -14
92 -11 17 5 31 0 46 -14 l21 -20 -36 -15 c-58 -24 -124 -19 -182 14 -27 16
-58 38 -69 49 -18 21 -18 21 22 17 22 -2 70 -11 106 -20z"/>
<path d="M2616 3604 c-9 -8 -16 -19 -16 -24 0 -9 28 -40 36 -40 17 0 44 23 44
38 0 38 -37 53 -64 26z m42 -27 c2 -10 -3 -17 -12 -17 -18 0 -29 16 -21 31 9
14 29 6 33 -14z"/>
<path d="M2027 3533 c-11 -10 -8 -43 3 -43 6 0 10 11 10 25 0 26 -2 29 -13 18z"/>
<path d="M1940 3440 c0 -5 11 -10 25 -10 14 0 25 5 25 10 0 6 -11 10 -25 10
-14 0 -25 -4 -25 -10z"/>
<path d="M2080 3440 c0 -5 9 -10 19 -10 11 0 23 5 26 10 4 6 -5 10 -19 10 -14
0 -26 -4 -26 -10z"/>
<path d="M2027 3393 c-11 -10 -8 -43 3 -43 6 0 10 11 10 25 0 26 -2 29 -13 18z"/>
<path d="M2009 3159 c-8 -20 -25 -37 -48 -46 l-36 -15 35 -17 c21 -9 41 -29
50 -48 17 -36 30 -43 30 -15 0 20 34 55 63 65 25 9 21 21 -14 34 -19 8 -34 23
-42 42 -14 39 -21 39 -38 0z m44 -43 l24 -24 -26 -20 -27 -20 -22 22 -21 23
22 21 c12 12 22 22 24 22 1 0 13 -11 26 -24z"/>
<path d="M2892 2485 c0 -16 2 -22 5 -12 2 9 2 23 0 30 -3 6 -5 -1 -5 -18z"/>
<path d="M2805 2410 c3 -5 12 -10 20 -10 8 0 17 5 20 10 4 6 -5 10 -20 10 -15
0 -24 -4 -20 -10z"/>
<path d="M2953 2409 c14 -8 22 -8 30 0 8 8 3 11 -18 11 -26 -1 -28 -2 -12 -11z"/>
<path d="M2892 2345 c0 -16 2 -22 5 -12 2 9 2 23 0 30 -3 6 -5 -1 -5 -18z"/>
<path d="M2170 2410 c0 -6 87 -10 240 -10 153 0 240 4 240 10 0 6 -87 10 -240
10 -153 0 -240 -4 -240 -10z"/>
<path d="M2170 2300 c0 -6 87 -10 240 -10 153 0 240 4 240 10 0 6 -87 10 -240
10 -153 0 -240 -4 -240 -10z"/>
<path d="M3489 3808 c-10 -39 -22 -58 -46 -74 -22 -15 -29 -24 -21 -32 7 -7
18 -3 37 14 23 22 33 25 84 22 36 -3 56 -1 54 6 -2 6 -25 9 -52 7 l-48 -3 8
34 c4 18 9 43 12 56 11 46 -15 20 -28 -30z"/>
<path d="M1443 3797 c-3 -6 -2 -12 3 -14 5 -2 28 -16 52 -32 l43 -28 -68 -13
c-127 -24 -127 -24 -42 -79 45 -29 77 -44 81 -37 4 5 -5 16 -20 23 -15 7 -40
24 -57 37 l-29 23 74 13 c116 20 116 19 39 72 -45 30 -71 43 -76 35z"/>
<path d="M3093 3774 c-3 -8 -1 -20 6 -27 8 -8 11 -4 11 16 0 30 -7 35 -17 11z"/>
<path d="M3023 3689 c14 -8 22 -8 30 0 8 8 3 11 -18 11 -26 -1 -28 -2 -12 -11z"/>
<path d="M3163 3689 c14 -8 22 -8 30 0 8 8 3 11 -18 11 -26 -1 -28 -2 -12 -11z"/>
<path d="M3097 3643 c-11 -10 -8 -43 3 -43 6 0 10 11 10 25 0 26 -2 29 -13 18z"/>
<path d="M3229 3374 c-17 -21 0 -49 31 -49 31 0 48 28 31 49 -8 9 -21 16 -31
16 -10 0 -23 -7 -31 -16z m49 -21 c-2 -10 -10 -18 -18 -18 -8 0 -16 8 -18 18
-2 12 3 17 18 17 15 0 20 -5 18 -17z"/>
<path d="M1599 3184 c-17 -21 0 -48 34 -52 18 -2 27 2 32 18 13 41 -38 68 -66
34z m51 -19 c0 -8 -9 -15 -20 -15 -11 0 -20 7 -20 15 0 8 9 15 20 15 11 0 20
-7 20 -15z"/>
<path d="M1397 2777 c-3 -8 -1 -20 4 -28 6 -10 9 -7 9 14 0 29 -5 35 -13 14z"/>
<path d="M1310 2690 c0 -5 11 -10 25 -10 14 0 25 5 25 10 0 6 -11 10 -25 10
-14 0 -25 -4 -25 -10z"/>
<path d="M1450 2690 c0 -5 11 -10 25 -10 14 0 25 5 25 10 0 6 -11 10 -25 10
-14 0 -25 -4 -25 -10z"/>
<path d="M1397 2630 c-3 -11 -1 -23 4 -26 5 -3 9 6 9 20 0 31 -6 34 -13 6z"/>
<path d="M3230 2552 c0 -23 -40 -62 -63 -62 -9 0 -17 -7 -17 -15 0 -8 8 -15
18 -15 23 0 62 -40 62 -63 0 -28 15 -19 33 18 12 26 25 37 47 41 39 8 38 20
-3 38 -21 8 -38 25 -46 45 -15 34 -31 41 -31 13z m37 -100 l-24 -23 -25 22
-25 22 26 23 26 23 23 -22 23 -21 -24 -24z"/>
<path d="M1785 1820 c-4 -12 -1 -27 5 -35 27 -33 78 -5 65 35 -4 14 -15 20
-35 20 -20 0 -31 -6 -35 -20z m53 -13 c2 -12 -3 -17 -17 -17 -12 0 -21 6 -21
13 0 31 32 34 38 4z"/>
<path d="M839 1787 c-297 -101 -446 -525 -252 -714 53 -51 132 -79 195 -69 74
12 161 86 199 170 l19 41 0 -162 c0 -90 2 -163 4 -163 2 0 29 10 60 21 l56 22
0 224 0 225 -23 -6 c-13 -3 -39 -12 -59 -20 -30 -13 -36 -21 -42 -58 -9 -52
-45 -117 -86 -151 -97 -82 -211 -41 -255 93 -26 79 -18 254 16 337 35 83 64
117 127 149 39 20 61 25 88 21 117 -19 102 -148 -25 -212 -54 -27 -25 -40 46
-20 110 32 198 106 209 177 5 27 1 41 -21 66 -47 56 -144 67 -256 29z"/>
<path d="M2919 1791 c-109 -43 -226 -157 -287 -279 -31 -64 -36 -86 -40 -160
-5 -100 17 -172 72 -245 80 -105 192 -129 319 -70 76 36 174 120 157 137 -6 6
-17 3 -32 -10 -133 -118 -285 -80 -365 91 -25 53 -28 71 -28 160 1 80 5 111
23 156 60 149 196 219 287 147 76 -60 71 -175 -12 -260 -42 -43 -38 -57 8 -38
53 22 125 103 149 167 34 92 16 161 -53 203 -41 26 -135 26 -198 1z"/>
<path d="M1298 1783 l-38 -15 0 -357 c0 -391 0 -393 59 -406 34 -7 82 14 105
47 20 28 9 44 -15 22 -10 -9 -25 -14 -34 -11 -13 6 -15 52 -15 372 0 286 -3
365 -12 364 -7 0 -30 -7 -50 -16z"/>
<path d="M2417 1428 l-28 -40 25 -27 c40 -42 42 -78 9 -154 -15 -37 -30 -67
-33 -67 -3 0 -25 69 -49 154 l-43 154 -45 -15 c-39 -14 -44 -19 -40 -40 2 -13
-8 -72 -23 -131 l-27 -107 -37 120 c-21 66 -44 130 -52 143 -22 34 -74 30
-119 -9 -43 -38 -44 -50 -6 -43 40 8 49 -8 107 -196 44 -144 51 -160 71 -160
25 0 31 17 74 195 12 50 25 93 29 98 3 4 19 -37 34 -90 60 -214 56 -204 79
-201 16 2 36 36 91 153 59 124 71 159 71 202 0 41 -5 57 -24 77 -14 14 -27 26
-30 26 -3 -1 -19 -19 -34 -42z"/>
<path d="M3797 1417 c-33 -40 -34 -45 -20 -60 15 -15 14 -20 -6 -69 -13 -29
-25 -59 -28 -65 -3 -7 0 -13 6 -13 6 0 23 25 38 55 27 55 28 56 63 50 19 -3
49 -1 67 4 l31 9 -24 -35 c-32 -48 -64 -137 -64 -179 0 -107 102 -146 194 -73
36 28 33 41 -8 34 -48 -9 -74 1 -92 37 -37 72 -13 164 63 249 42 46 38 58 -11
35 -65 -31 -123 -18 -155 35 l-18 30 -36 -44z"/>
<path d="M1630 1424 c-103 -59 -144 -123 -145 -230 0 -80 21 -122 83 -164 49
-34 135 -39 189 -11 72 36 133 136 133 216 0 49 -32 126 -66 159 -51 49 -67
50 -116 6 l-43 -38 27 -7 c31 -8 94 -73 108 -111 6 -14 10 -47 10 -74 0 -125
-135 -160 -201 -53 -49 79 -25 198 57 284 19 19 31 38 28 42 -11 10 -15 9 -64
-19z"/>
<path d="M4337 1439 c-90 -21 -166 -94 -192 -184 -65 -221 190 -345 353 -172
46 48 25 54 -38 12 -66 -44 -114 -47 -160 -9 l-31 26 53 35 c64 41 144 118
164 155 29 56 10 109 -48 132 -43 18 -47 18 -101 5z m43 -69 c24 -24 25 -39 6
-85 -17 -41 -108 -135 -130 -135 -21 0 -37 66 -27 112 10 43 46 104 69 118 27
15 61 11 82 -10z"/>
<path d="M3427 1426 c-61 -22 -103 -62 -136 -127 -55 -110 -39 -224 39 -276
59 -41 147 -20 180 42 16 31 25 32 27 3 1 -12 11 -30 21 -41 38 -37 132 -15
148 35 8 27 -2 34 -21 14 -39 -38 -49 -15 -51 117 -1 60 -5 111 -7 114 -3 3
-26 -3 -50 -12 l-44 -17 -5 -73 c-5 -80 -23 -119 -64 -137 -78 -36 -144 112
-98 220 36 88 104 117 160 68 26 -22 29 -22 66 -8 21 8 38 18 38 22 0 15 -49
51 -81 60 -45 13 -76 12 -122 -4z"/>
<path d="M2815 798 c-73 -40 -53 -138 29 -138 19 0 42 7 50 16 23 22 20 28 -6
10 -46 -32 -98 -7 -98 47 0 47 57 76 88 45 9 -9 12 -8 12 5 0 9 -6 17 -14 17
-8 0 -20 2 -28 5 -7 2 -22 0 -33 -7z"/>
<path d="M1646 783 c-6 -13 2 -26 30 -49 25 -21 35 -37 31 -48 -8 -19 -38 -21
-56 -3 -11 10 -13 9 -9 -3 3 -10 17 -15 39 -15 30 0 34 3 37 30 2 25 -3 34
-28 48 -16 10 -30 25 -30 33 0 17 31 19 49 2 11 -11 13 -10 9 2 -7 23 -64 25
-72 3z"/>
<path d="M1760 730 c0 -40 4 -70 10 -70 6 0 10 16 10 37 l0 36 28 -36 c15 -20
33 -36 40 -37 8 0 -3 19 -23 43 l-36 42 32 28 c18 15 28 27 21 27 -7 0 -23 -9
-35 -21 l-22 -20 -3 20 c-2 12 -8 21 -13 21 -5 0 -9 -31 -9 -70z"/>
<path d="M1898 730 c-2 -42 1 -70 7 -70 6 0 10 30 10 70 0 91 -12 91 -17 0z"/>
<path d="M1965 730 c0 -40 4 -70 10 -70 6 0 9 23 7 55 -2 30 -1 55 4 55 4 0
31 -26 60 -57 l53 -58 1 73 c0 41 -4 72 -10 72 -5 0 -10 -21 -10 -47 l0 -47
-48 47 c-26 26 -52 47 -57 47 -6 0 -10 -31 -10 -70z"/>
<path d="M2243 747 c-34 -78 -36 -87 -25 -87 6 0 12 10 14 23 2 18 9 22 38 22
29 0 36 -4 38 -22 2 -13 10 -23 18 -23 8 0 14 2 14 4 0 11 -63 136 -68 136 -4
0 -17 -24 -29 -53z m41 -3 c9 -23 8 -24 -14 -24 -11 0 -20 2 -20 4 0 12 13 36
20 36 4 0 11 -7 14 -16z"/>
<path d="M2380 730 c0 -40 4 -70 10 -70 6 0 10 26 10 57 l0 57 60 -59 60 -59
0 72 c0 41 -4 72 -10 72 -5 0 -10 -20 -10 -45 0 -25 -4 -45 -9 -45 -5 0 -25
20 -45 45 -54 65 -66 60 -66 -25z"/>
<path d="M2570 730 c0 -70 0 -70 28 -70 57 0 95 56 71 103 -16 30 -28 37 -66
37 l-33 0 0 -70z m72 43 c33 -30 17 -84 -29 -98 -22 -6 -23 -4 -23 54 0 66 14
78 52 44z"/>
<path d="M2972 730 c-26 -58 -28 -70 -15 -70 9 0 13 3 10 6 -14 15 15 44 43
44 23 0 31 -5 36 -25 3 -14 12 -25 20 -25 9 0 4 20 -18 70 -17 39 -34 70 -38
70 -4 0 -21 -31 -38 -70z m58 -2 c0 -4 -9 -8 -20 -8 -21 0 -24 8 -13 36 6 16
7 16 20 -2 7 -10 13 -21 13 -26z"/>
<path d="M3118 731 c-2 -43 1 -71 7 -71 6 0 9 26 7 66 -4 64 -3 66 20 62 30
-4 36 -34 8 -43 -21 -7 -21 -7 4 -32 15 -14 26 -32 26 -39 0 -8 7 -14 16 -14
17 0 12 13 -19 48 -20 21 -20 23 -3 35 30 22 16 52 -26 55 l-36 3 -4 -70z"/>
<path d="M3260 730 l0 -70 45 0 c25 0 45 4 45 8 0 4 -16 6 -35 4 -33 -4 -35
-3 -35 27 0 29 3 31 35 31 19 0 35 5 35 10 0 6 -16 10 -35 10 -28 0 -35 4 -35
19 0 15 8 21 38 24 34 3 33 4 -10 5 l-48 2 0 -70z"/>
</g>
</svg>
