<?xml version="1.0" standalone="no"?>
<!DOCTYPE svg PUBLIC "-//W3C//DTD SVG 20010904//EN"
 "http://www.w3.org/TR/2001/REC-SVG-20010904/DTD/svg10.dtd">
<svg version="1.0" xmlns="http://www.w3.org/2000/svg"
 width="500.000000pt" height="500.000000pt" viewBox="0 0 500.000000 500.000000"
 preserveAspectRatio="xMidYMid meet">

<g transform="translate(0.000000,500.000000) scale(0.100000,-0.100000)"
fill="#000000" stroke="none">
<path d="M2304 4485 c-409 -73 -719 -356 -836 -764 -21 -74 -22 -96 -27 -735
l-6 -658 -88 106 c-48 59 -99 112 -113 118 -23 11 -29 9 -44 -10 -25 -30 -34
-143 -26 -309 3 -73 4 -133 1 -133 -4 0 -23 13 -43 29 -98 78 -252 141 -347
143 -168 3 -152 -55 86 -297 142 -145 146 -151 127 -165 -32 -24 -17 -51 85
-154 103 -104 190 -173 269 -214 45 -23 65 -27 129 -26 42 1 87 4 101 7 22 6
32 -3 88 -74 270 -343 720 -479 1131 -343 338 113 587 382 681 739 20 74 22
112 25 503 l5 422 76 59 c91 69 195 176 190 194 -3 6 -15 17 -27 23 -22 11
-20 15 65 85 321 269 358 307 352 363 -3 26 -9 32 -43 42 -121 37 -321 -12
-489 -120 -65 -41 -63 -46 -41 94 8 52 18 149 21 215 11 194 -16 235 -103 160
-45 -38 -44 -39 -63 20 -39 122 -140 283 -242 385 -151 150 -319 242 -523 287
-92 20 -282 24 -371 8z m396 -44 c192 -49 347 -137 480 -271 106 -108 208
-278 242 -403 l12 -47 -80 -82 c-44 -46 -106 -116 -138 -155 -31 -40 -58 -73
-59 -73 -2 0 0 37 4 83 17 199 19 298 9 380 -12 101 -44 209 -66 227 -33 28
-43 -1 -104 -302 -10 -50 -14 -57 -37 -60 -14 -2 -35 -16 -47 -31 -19 -25 -21
-44 -23 -161 -2 -135 -4 -149 -67 -389 -20 -76 -36 -147 -36 -158 0 -32 -18
-12 -30 32 -9 32 -8 42 3 54 12 11 15 67 16 291 2 248 0 278 -15 295 -9 10
-23 19 -30 19 -7 0 -17 24 -24 58 -33 167 -67 238 -135 277 -64 38 -218 67
-328 63 -79 -3 -91 -6 -108 -27 -26 -32 -24 -57 11 -123 31 -59 60 -161 60
-214 0 -23 -6 -34 -25 -42 -14 -6 -25 -15 -25 -19 0 -5 -1 -136 -1 -292 -1
-210 2 -285 11 -291 16 -10 3 -72 -24 -113 -15 -22 -35 -36 -66 -45 -66 -19
-92 -37 -112 -74 -17 -30 -18 -80 -18 -701 0 -736 -1 -718 62 -757 32 -19 49
-20 454 -20 l421 0 34 23 c18 12 39 34 46 47 10 19 13 157 13 584 0 527 1 558
18 551 55 -21 154 -36 212 -32 66 4 130 28 218 83 l44 26 -4 -408 c-4 -401 -5
-411 -30 -504 -48 -179 -129 -322 -257 -453 -183 -189 -419 -293 -681 -302
-229 -7 -440 59 -627 196 -68 50 -172 154 -213 214 l-29 42 30 17 c16 9 29 21
29 26 0 4 20 29 45 55 99 106 108 175 60 462 -27 163 -28 177 -15 257 7 46 10
99 6 117 -7 35 -41 79 -62 79 -8 0 -15 24 -19 68 -10 104 -26 222 -32 238 -11
30 -44 15 -64 -31 -43 -96 -60 -194 -67 -375 l-7 -175 -32 51 -33 50 0 650
c-1 563 1 661 15 729 88 426 414 737 843 805 86 14 285 3 372 -19z m-300 -392
c194 -29 237 -77 285 -315 l6 -31 -48 8 c-61 10 -281 10 -350 0 l-53 -7 0 30
c0 54 -29 154 -61 216 -38 73 -33 97 19 105 20 4 42 8 47 10 11 3 59 -1 155
-16z m741 -164 c13 -79 6 -258 -16 -464 -9 -74 -17 -136 -18 -138 -2 -1 -11
23 -21 55 -10 31 -33 98 -51 147 -44 120 -50 168 -30 225 9 25 30 110 46 190
16 80 32 152 36 160 8 20 40 -84 54 -175z m435 -121 c10 -39 -3 -250 -24 -388
l-18 -119 -39 -30 c-22 -17 -94 -84 -159 -149 -66 -65 -121 -116 -123 -115 -1
2 2 21 8 43 7 23 9 87 6 159 -6 148 6 191 94 348 49 86 83 131 146 195 45 45
87 82 92 82 6 0 14 -12 17 -26z m-552 -327 c69 -207 90 -312 84 -431 -8 -168
-88 -264 -138 -167 -11 22 -30 47 -42 55 -32 23 -28 111 12 266 43 165 45 250
7 337 -31 72 -35 139 -10 186 l17 32 8 -58 c4 -32 32 -131 62 -220z m-316 233
l42 -12 0 -274 c0 -267 0 -274 -20 -274 -19 0 -20 7 -20 236 0 184 -3 235 -12
232 -10 -4 -14 -62 -16 -236 l-2 -232 -245 0 -245 0 0 275 0 274 38 10 c20 5
51 12 67 14 56 9 370 -1 413 -13z m557 -203 c-62 -113 -67 -137 -66 -297 1
-133 0 -149 -21 -190 -13 -24 -27 -45 -33 -47 -6 -2 -10 54 -10 155 1 265 -5
237 81 346 41 53 77 96 79 96 3 0 -11 -28 -30 -63z m-321 -105 c0 -53 -11
-116 -33 -202 -18 -69 -33 -153 -34 -187 -2 -67 -3 -68 -40 -54 -23 9 -24 12
-16 70 5 33 29 139 54 236 25 96 45 190 45 207 0 26 2 30 13 19 7 -7 12 -40
11 -89z m1150 49 c18 -7 16 -10 -15 -33 -19 -14 -97 -65 -174 -113 -126 -77
-272 -169 -408 -254 -41 -26 -58 -30 -127 -32 -44 -1 -83 0 -85 3 -11 11 215
217 297 271 102 68 234 132 314 151 64 16 167 19 198 7z m7 -78 c-17 -22 -79
-79 -138 -129 -58 -49 -145 -122 -192 -162 l-86 -72 -87 2 c-49 1 -88 5 -88 9
0 4 37 29 83 55 45 26 127 77 182 114 55 37 143 92 195 123 52 31 109 68 125
81 41 33 43 25 6 -21z m-1364 -313 c7 -30 20 -65 28 -77 8 -12 15 -24 15 -26
0 -2 -38 -2 -85 0 -50 1 -87 -2 -91 -8 -3 -6 -4 -12 -3 -14 2 -2 68 -6 146 -8
78 -3 151 -11 163 -17 48 -26 49 -32 50 -728 0 -587 -1 -657 -16 -688 -9 -19
-26 -40 -38 -47 -16 -9 -129 -12 -436 -12 -384 0 -418 1 -443 18 -16 10 -32
29 -37 43 -6 15 -10 293 -10 694 l0 670 28 31 c26 30 33 31 111 35 46 2 87 6
90 9 8 9 -22 26 -36 20 -18 -6 -16 4 7 50 11 22 23 57 27 78 l6 37 255 -2 255
-3 14 -55z m816 -75 c127 -7 169 -15 174 -32 5 -15 -124 -133 -164 -149 -22
-9 -68 -14 -135 -13 -65 1 -141 -6 -205 -19 -172 -33 -193 -18 -133 92 39 71
44 76 98 96 31 12 81 25 112 29 58 7 65 7 253 -4z m-533 -183 c0 -5 -9 -17
-20 -27 -20 -18 -20 -17 -20 8 0 20 5 27 20 27 11 0 20 -4 20 -8z m-1344 -217
c29 -216 34 -192 -94 -465 -9 -20 -11 26 -8 215 3 207 6 250 25 311 11 40 26
84 33 100 l13 27 7 -29 c3 -16 14 -87 24 -159z m1832 170 c6 -5 -129 -87 -190
-115 -75 -33 -137 -38 -230 -19 -80 17 -108 34 -108 68 0 37 43 79 64 62 33
-27 72 -29 197 -6 85 15 146 21 194 17 39 -3 71 -6 73 -7z m-2225 -250 c51
-57 125 -199 163 -311 l25 -76 -16 -100 c-9 -58 -13 -119 -9 -144 3 -24 4 -44
1 -44 -2 0 -24 26 -48 58 -23 31 -79 94 -123 139 l-80 83 -4 187 c-5 198 6
281 32 266 8 -5 34 -30 59 -58z m477 -129 c0 -27 -12 -65 -35 -110 -41 -81
-45 -141 -20 -291 21 -130 19 -192 -7 -245 -25 -50 -66 -72 -96 -54 -36 23
-47 65 -46 174 1 122 19 183 111 390 31 68 58 144 61 169 4 40 6 42 18 26 8
-11 14 -37 14 -59z m-220 -313 c0 -49 -4 -106 -9 -128 -6 -22 -11 -64 -11 -94
0 -44 -2 -51 -14 -42 -29 25 -39 94 -26 188 17 117 16 158 -8 223 -11 30 -23
64 -27 75 -4 11 16 -15 44 -57 l50 -78 1 -87z m-685 211 c122 -25 312 -157
448 -312 102 -115 102 -114 20 -106 -62 6 -75 12 -153 67 -47 33 -107 79 -135
102 -70 57 -175 137 -208 158 -16 10 -47 35 -69 55 -40 36 -40 37 -17 43 24 7
55 4 114 -7z m28 -170 c191 -145 270 -204 297 -223 24 -17 23 -18 -53 -16
l-78 1 -110 110 c-122 120 -239 251 -239 267 0 6 15 -3 33 -19 17 -17 85 -71
150 -120z m891 -119 c36 -220 26 -296 -53 -382 -36 -40 -54 -41 -86 -7 -29 32
-31 44 -7 44 33 0 83 40 102 83 24 52 25 131 5 247 -16 91 -20 207 -8 237 6
13 10 4 16 -32 5 -27 19 -113 31 -190z m-390 -171 c104 -26 136 -50 167 -126
27 -65 27 -68 9 -78 -27 -15 -39 -13 -157 20 -62 17 -130 30 -164 30 -91 0
-132 24 -211 123 -24 30 -28 41 -18 47 21 13 308 1 374 -16z m16 -210 c101
-28 147 -32 176 -16 14 8 23 5 39 -12 12 -13 28 -26 36 -29 11 -4 9 -10 -8
-25 -27 -24 -147 -46 -209 -39 -46 5 -150 62 -214 116 l-35 30 60 1 c34 0 100
-11 155 -26z"/>
<path d="M2786 4048 c-22 -31 -20 -51 7 -76 28 -26 45 -27 75 -6 24 16 29 53
12 85 -15 28 -74 26 -94 -3z m77 -20 c6 -18 -11 -48 -27 -48 -20 0 -39 27 -32
45 7 18 52 20 59 3z"/>
<path d="M1860 3910 c0 -29 4 -40 13 -37 6 2 12 19 12 37 0 18 -6 35 -12 38
-9 2 -13 -9 -13 -38z"/>
<path d="M1722 3798 c3 -7 21 -14 41 -16 28 -2 37 1 37 12 0 12 -11 16 -41 16
-28 0 -39 -4 -37 -12z"/>
<path d="M1942 3798 c3 -7 21 -14 41 -16 28 -2 37 1 37 12 0 12 -11 16 -41 16
-28 0 -39 -4 -37 -12z"/>
<path d="M1866 3723 c-3 -3 -6 -21 -6 -40 0 -23 5 -33 15 -33 10 0 15 10 15
34 0 34 -11 52 -24 39z"/>
<path d="M1842 3362 c-14 -46 -38 -69 -88 -87 -52 -17 -53 -32 -5 -45 45 -12
89 -58 98 -101 3 -16 11 -29 18 -29 7 0 15 13 18 29 8 40 53 89 90 99 43 11
47 37 7 46 -40 7 -88 56 -96 95 -9 42 -28 39 -42 -7z m59 -150 l-36 -37 -36
37 -36 37 36 39 36 38 36 -38 36 -38 -36 -38z"/>
<path d="M3222 2283 c2 -21 8 -38 13 -38 6 0 11 17 13 38 3 29 0 37 -13 37
-13 0 -16 -8 -13 -37z"/>
<path d="M3087 2183 c-16 -15 -5 -23 33 -23 29 0 40 4 40 15 0 10 -10 15 -33
15 -19 0 -37 -3 -40 -7z"/>
<path d="M3307 2184 c-13 -13 5 -24 39 -24 24 0 34 5 34 15 0 10 -10 15 -33
15 -19 0 -37 -3 -40 -6z"/>
<path d="M3222 2063 c2 -21 8 -38 13 -38 6 0 11 17 13 38 3 29 0 37 -13 37
-13 0 -16 -8 -13 -37z"/>
<path d="M2097 2183 c-4 -3 -7 -10 -7 -15 0 -4 171 -8 381 -8 300 0 380 3 377
13 -4 9 -89 13 -375 15 -203 1 -372 -1 -376 -5z"/>
<path d="M2090 1995 c0 -13 45 -15 378 -13 243 2 377 7 377 13 0 6 -134 11
-377 13 -333 2 -378 0 -378 -13z"/>
<path d="M3550 4304 c0 -24 4 -34 13 -31 6 2 11 15 11 28 -2 36 -3 39 -14 39
-5 0 -10 -16 -10 -36z"/>
<path d="M3410 4195 c0 -11 11 -15 40 -15 29 0 40 4 40 15 0 11 -11 15 -40 15
-29 0 -40 -4 -40 -15z"/>
<path d="M3637 4203 c-16 -15 -5 -23 33 -23 29 0 40 4 40 15 0 10 -10 15 -33
15 -19 0 -37 -3 -40 -7z"/>
<path d="M3550 4080 c0 -22 4 -40 9 -40 12 0 22 45 15 64 -11 29 -24 16 -24
-24z"/>
<path d="M3772 3704 c-26 -18 -30 -65 -6 -88 23 -24 70 -20 88 6 21 30 20 54
-4 78 -24 24 -48 25 -78 4z m58 -29 c17 -20 5 -45 -20 -45 -23 0 -35 22 -26
45 7 19 30 19 46 0z"/>
<path d="M1202 3404 c-45 -31 -17 -104 41 -104 28 0 57 32 57 62 0 23 -35 58
-58 58 -10 0 -28 -7 -40 -16z m63 -44 c0 -18 -6 -26 -23 -28 -24 -4 -38 18
-28 44 3 9 15 14 28 12 17 -2 23 -10 23 -28z"/>
<path d="M867 2753 c-9 -17 -1 -67 11 -71 12 -4 14 2 14 38 0 11 0 25 -1 30
-1 12 -18 13 -24 3z"/>
<path d="M742 2622 c-27 -9 -9 -22 28 -22 22 0 40 4 40 9 0 10 -50 19 -68 13z"/>
<path d="M978 2622 c-43 -5 -33 -22 12 -22 22 0 40 4 40 9 0 12 -20 17 -52 13z"/>
<path d="M867 2520 c-6 -23 2 -60 13 -60 11 0 19 37 13 60 -3 11 -9 20 -13 20
-4 0 -10 -9 -13 -20z"/>
<path d="M3764 2403 c-23 -74 -43 -94 -116 -117 -26 -8 -23 -36 3 -36 40 0 87
-38 105 -85 19 -50 44 -60 44 -19 0 36 68 104 105 104 38 0 29 31 -11 42 -40
10 -94 70 -94 103 0 29 -28 35 -36 8z m40 -87 c8 -14 25 -28 37 -31 20 -7 20
-9 -15 -42 -20 -19 -36 -40 -36 -45 0 -6 -18 8 -41 30 l-40 41 33 35 c18 19
36 35 39 35 4 1 14 -10 23 -23z"/>
<path d="M1496 1257 c-40 -41 -16 -99 41 -99 27 0 63 32 63 57 0 19 -32 52
-57 60 -16 4 -29 -1 -47 -18z m62 -19 c18 -18 15 -36 -10 -49 -18 -9 -24 -8
-34 6 -25 34 15 72 44 43z"/>
</g>
</svg>
